<svg xmlns="http://www.w3.org/2000/svg" xmlns:xlink="http://www.w3.org/1999/xlink" width="1110" height="494.2"><rect width="1110" height="494.2" rx="5" ry="5" class="a"/><svg y="0%" x="0%"><circle cx="20" cy="20" r="6" fill="#ff5f58"/><circle cx="40" cy="20" r="6" fill="#ffbd2e"/><circle cx="60" cy="20" r="6" fill="#18c132"/></svg><svg height="434.2" viewBox="0 0 107 43.42" width="1070" x="15" xmlns="http://www.w3.org/2000/svg" xmlns:xlink="http://www.w3.org/1999/xlink" y="50"><style>@keyframes n{0%{transform:translateX(0)}.07%{transform:translateX(-107px)}7.57%{transform:translateX(-321px)}7.71%{transform:translateX(-535px)}7.72%{transform:translateX(-1284px)}7.74%{transform:translateX(-1391px)}7.75%{transform:translateX(-1498px)}7.88%{transform:translateX(-1926px)}7.9%{transform:translateX(-2033px)}8.16%{transform:translateX(-2247px)}10.03%{transform:translateX(-2568px)}10.04%{transform:translateX(-2675px)}10.37%{transform:translateX(-2782px)}13.46%{transform:translateX(-2996px)}19.62%{transform:translateX(-3103px)}25.78%{transform:translateX(-3210px)}31.95%{transform:translateX(-3317px)}38.11%{transform:translateX(-3424px)}44.28%{transform:translateX(-3531px)}47.36%{transform:translateX(-3638px)}47.47%{transform:translateX(-3745px)}53.63%{transform:translateX(-3852px)}53.67%{transform:translateX(-3959px)}59.83%{transform:translateX(-4066px)}59.9%{transform:translateX(-4173px)}66.07%{transform:translateX(-4280px)}66.11%{transform:translateX(-4494px)}69.2%{transform:translateX(-4601px)}to{transform:translateX(-4708px)}}.a{fill:#282d35}.f,.g,.h,.i,.j,.k{fill:#66c2cd;white-space:pre}.g,.h,.i,.j,.k{fill:#b9c0cb}.h,.i,.j,.k{fill:#73bef3}.i,.j,.k{fill:#a8cc8c}.j,.k{fill:#dbab79}.k{fill:#e88388}</style><g font-family="Monaco,Consolas,Menlo,'Bitstream Vera Sans Mono','Powerline Symbols',monospace" font-size="1.67"><defs><symbol id="27"><text x="1.002" y="1.67" class="g">---&gt;</text><text x="6.012" y="1.67" class="g">1df85830c7dd</text></symbol><symbol id="1"><text y="1.67" class="f">#</text><text x="2.004" y="1.67" class="f">Construa</text><text x="11.022" y="1.67" class="f">as</text><text x="14.028" y="1.67" class="f">imagens</text></symbol><symbol id="3"><text y="1.67" class="g">database</text><text x="9.018" y="1.67" class="g">uses</text><text x="14.028" y="1.67" class="g">an</text><text x="17.034" y="1.67" class="g">image,</text><text x="24.048" y="1.67" class="g">skipping</text></symbol><symbol id="4"><text y="1.67" class="g">adminer</text><text x="8.016" y="1.67" class="g">uses</text><text x="13.026" y="1.67" class="g">an</text><text x="16.032" y="1.67" class="g">image,</text><text x="23.046" y="1.67" class="g">skipping</text></symbol><symbol id="5"><text y="1.67" class="g">Building</text><text x="9.018" y="1.67" class="g">app</text></symbol><symbol id="6"><text y="1.67" class="g">Step</text><text x="5.01" y="1.67" class="g">1/7</text><text x="9.018" y="1.67" class="g">:</text><text x="11.022" y="1.67" class="g">FROM</text><text x="16.032" y="1.67" class="g">node:12</text></symbol><symbol id="7"><text x="1.002" y="1.67" class="g">---&gt;</text><text x="6.012" y="1.67" class="g">cfcf3e70099d</text></symbol><symbol id="8"><text y="1.67" class="g">Step</text><text x="5.01" y="1.67" class="g">2/7</text><text x="9.018" y="1.67" class="g">:</text><text x="11.022" y="1.67" class="g">WORKDIR</text><text x="19.038" y="1.67" class="g">/app</text></symbol><symbol id="9"><text x="1.002" y="1.67" class="g">---&gt;</text><text x="6.012" y="1.67" class="g">Using</text><text x="12.024" y="1.67" class="g">cache</text></symbol><symbol id="10"><text x="1.002" y="1.67" class="g">---&gt;</text><text x="6.012" y="1.67" class="g">08c705061988</text></symbol><symbol id="11"><text y="1.67" class="g">Step</text><text x="5.01" y="1.67" class="g">3/7</text><text x="9.018" y="1.67" class="g">:</text><text x="11.022" y="1.67" class="g">COPY</text><text x="16.032" y="1.67" class="g">.</text><text x="18.036" y="1.67" class="g">.</text></symbol><symbol id="12"><text x="1.002" y="1.67" class="g">---&gt;</text><text x="6.012" y="1.67" class="g">1a2945e7a8ed</text></symbol><symbol id="13"><text y="1.67" class="g">Step</text><text x="5.01" y="1.67" class="g">4/7</text><text x="9.018" y="1.67" class="g">:</text><text x="11.022" y="1.67" class="g">RUN</text><text x="15.03" y="1.67" class="g">set</text><text x="19.038" y="1.67" class="g">-x</text><text x="26.052" y="1.67" class="g">&amp;&amp;</text><text x="29.058" y="1.67" class="g">npm</text><text x="33.066" y="1.67" class="g">install</text><text x="45.09" y="1.67" class="g">&amp;&amp;</text><text x="48.096" y="1.67" class="g">chmod</text><text x="54.108" y="1.67" class="g">+x</text><text x="57.114" y="1.67" class="g">entrypoint.sh</text></symbol><symbol id="14"><text x="1.002" y="1.67" class="g">---&gt;</text><text x="6.012" y="1.67" class="g">8ea5098414b7</text></symbol><symbol id="15"><text y="1.67" class="g">Step</text><text x="5.01" y="1.67" class="g">5/7</text><text x="9.018" y="1.67" class="g">:</text><text x="11.022" y="1.67" class="g">ENV</text><text x="15.03" y="1.67" class="g">SERVER_PORT=8888</text></symbol><symbol id="16"><text x="1.002" y="1.67" class="g">---&gt;</text><text x="6.012" y="1.67" class="g">4b616d712342</text></symbol><symbol id="17"><text y="1.67" class="g">Step</text><text x="5.01" y="1.67" class="g">6/7</text><text x="9.018" y="1.67" class="g">:</text><text x="11.022" y="1.67" class="g">EXPOSE</text><text x="18.036" y="1.67" class="g">8888</text></symbol><symbol id="18"><text x="1.002" y="1.67" class="g">---&gt;</text><text x="6.012" y="1.67" class="g">a66831efcf30</text></symbol><symbol id="19"><text y="1.67" class="g">Step</text><text x="5.01" y="1.67" class="g">7/7</text><text x="9.018" y="1.67" class="g">:</text><text x="11.022" y="1.67" class="g">CMD</text><text x="15.03" y="1.67" class="g">[</text><text x="17.034" y="1.67" class="g">&quot;/app/entrypoint.sh&quot;</text><text x="38.076" y="1.67" class="g">]</text></symbol><symbol id="20"><text x="1.002" y="1.67" class="g">---&gt;</text><text x="6.012" y="1.67" class="g">b77628a51bc5</text></symbol><symbol id="21"><text y="1.67" class="g">Successfully</text><text x="13.026" y="1.67" class="g">built</text><text x="19.038" y="1.67" class="g">b77628a51bc5</text></symbol><symbol id="22"><text y="1.67" class="g">Successfully</text><text x="13.026" y="1.67" class="g">tagged</text><text x="20.04" y="1.67" class="g">docker.pkg.github.com/thenets/challenge-delta/app:latest</text></symbol><symbol id="23"><text y="1.67" class="g">Building</text><text x="9.018" y="1.67" class="g">loadbalancer</text></symbol><symbol id="24"><text y="1.67" class="g">Step</text><text x="5.01" y="1.67" class="g">1/2</text><text x="9.018" y="1.67" class="g">:</text><text x="11.022" y="1.67" class="g">FROM</text><text x="16.032" y="1.67" class="g">nginx:alpine</text></symbol><symbol id="25"><text x="1.002" y="1.67" class="g">---&gt;</text><text x="6.012" y="1.67" class="g">ecd67fe340f9</text></symbol><symbol id="26"><text y="1.67" class="g">Step</text><text x="5.01" y="1.67" class="g">2/2</text><text x="9.018" y="1.67" class="g">:</text><text x="11.022" y="1.67" class="g">ADD</text><text x="15.03" y="1.67" class="g">./default.conf</text><text x="30.06" y="1.67" class="g">/etc/nginx/conf.d/default.conf</text></symbol><symbol id="2"><text y="1.67" class="g">$</text><text x="2.004" y="1.67" class="g">docker-compose</text><text x="17.034" y="1.67" class="g">build</text></symbol><symbol id="28"><text y="1.67" class="g">Successfully</text><text x="13.026" y="1.67" class="g">built</text><text x="19.038" y="1.67" class="g">1df85830c7dd</text></symbol><symbol id="29"><text y="1.67" class="g">Successfully</text><text x="13.026" y="1.67" class="g">tagged</text><text x="20.04" y="1.67" class="g">docker.pkg.github.com/thenets/challenge-delta/loadbalancer:latest</text></symbol><symbol id="30"><text y="1.67" class="f">#</text><text x="2.004" y="1.67" class="f">Execute</text><text x="10.02" y="1.67" class="f">os</text><text x="13.026" y="1.67" class="f">containers</text></symbol><symbol id="31"><text y="1.67" class="g">$</text><text x="2.004" y="1.67" class="g">docker-compose</text><text x="17.034" y="1.67" class="g">up</text><text x="20.04" y="1.67" class="g">-d</text></symbol><symbol id="32"><text y="1.67" class="g">challenge-delta_database_1</text><text x="27.054" y="1.67" class="g">is</text><text x="30.06" y="1.67" class="g">up-to-date</text></symbol><symbol id="33"><text y="1.67" class="g">challenge-delta_adminer_1</text><text x="26.052" y="1.67" class="g">is</text><text x="29.058" y="1.67" class="g">up-to-date</text></symbol><symbol id="34"><text y="1.67" class="g">challenge-delta_app_1</text><text x="22.044" y="1.67" class="g">is</text><text x="25.05" y="1.67" class="g">up-to-date</text></symbol><symbol id="35"><text y="1.67" class="g">challenge-delta_loadbalancer_1</text><text x="31.062" y="1.67" class="g">is</text><text x="34.068" y="1.67" class="g">up-to-date</text></symbol><symbol id="36"><text y="1.67" class="f">#</text><text x="2.004" y="1.67" class="f">Aguarde</text><text x="10.02" y="1.67" class="f">os</text><text x="13.026" y="1.67" class="f">containers</text><text x="24.048" y="1.67" class="f">iniciarem</text></symbol><symbol id="37"><text y="1.67" class="g">Iniciando.....</text></symbol><symbol id="38"><text y="1.67" class="f">#</text><text x="2.004" y="1.67" class="f">Adicionar</text><text x="12.024" y="1.67" class="f">&apos;offer&apos;</text></symbol><symbol id="39"><text y="1.67" class="h">[request]</text><text x="10.02" y="1.67" class="g">$</text><text x="12.024" y="1.67" class="g">curl</text><text x="17.034" y="1.67" class="i">-X</text><text x="20.04" y="1.67" class="i">POST</text><text x="25.05" y="1.67" class="g">\</text></symbol><symbol id="40"><text x="4.008" y="1.67" class="g">-H</text><text x="7.014" y="1.67" class="g">&quot;Content-Type:</text><text x="22.044" y="1.67" class="g">application/x-www-form-urlencoded&quot;</text><text x="57.114" y="1.67" class="g">\</text></symbol><symbol id="41"><text x="4.008" y="1.67" class="j">-d</text><text x="7.014" y="1.67" class="j">&quot;Watch</text><text x="14.028" y="1.67" class="j">Dogs</text><text x="19.038" y="1.67" class="j">2&quot;</text><text x="22.044" y="1.67" class="g">\</text></symbol><symbol id="42"><text x="4.008" y="1.67" class="g">http://localhost:3000/packages/</text></symbol><symbol id="43"><text y="1.67" class="i">[response]</text><text x="11.022" y="1.67" class="g">Ok</text></symbol><symbol id="44"><text y="1.67" class="f">#</text><text x="2.004" y="1.67" class="f">Listar</text><text x="9.018" y="1.67" class="f">&apos;offers&apos;</text></symbol><symbol id="45"><text y="1.67" class="h">[request]</text><text x="10.02" y="1.67" class="g">$</text><text x="12.024" y="1.67" class="g">curl</text><text x="17.034" y="1.67" class="g">http://localhost:3000/packages/</text></symbol><symbol id="46"><text y="1.67" class="i">[response]</text><text x="11.022" y="1.67" class="g">[{&quot;Id&quot;:1,&quot;Text&quot;:&quot;&apos;Watch</text><text x="35.07" y="1.67" class="g">Dogs</text><text x="40.08" y="1.67" class="g">2&apos;&quot;}]</text></symbol><symbol id="47"><text y="1.67" class="f">#</text><text x="2.004" y="1.67" class="f">Remover</text><text x="10.02" y="1.67" class="f">&apos;offer&apos;</text></symbol><symbol id="48"><text y="1.67" class="h">[request]</text><text x="10.02" y="1.67" class="g">$</text><text x="12.024" y="1.67" class="g">curl</text><text x="17.034" y="1.67" class="k">-X</text><text x="20.04" y="1.67" class="k">DELETE</text><text x="27.054" y="1.67" class="g">http://localhost:3000/packages/1</text></symbol><symbol id="49"><text y="1.67" class="i">[response]</text><text x="11.022" y="1.67" class="g">[]</text></symbol><symbol id="50"><text y="1.67" class="f">#</text><text x="2.004" y="1.67" class="f">Bye</text><text x="6.012" y="1.67" class="f">:)</text></symbol><symbol id="a"><path fill="transparent" d="M0 0h107v20H0z"/></symbol><symbol id="b"><path fill="#6f7683" d="M0 0h1.102v2.171H0z"/></symbol></defs><path class="a" d="M0 0h107v43.42H0z"/><g style="animation-duration:32.4707s;animation-iteration-count:infinite;animation-name:n;animation-timing-function:steps(1,end)"><svg width="4815"><svg><use xlink:href="#a"/><use xlink:href="#b" x="-.004"/></svg><svg x="107"><use xlink:href="#a"/><use xlink:href="#b" x="-.004" y="4.317"/><use xlink:href="#1"/><use xlink:href="#2" y="2.171"/></svg><svg x="214"><use xlink:href="#a"/><use xlink:href="#b" x="-.004" y="8.659"/><use xlink:href="#1"/><use xlink:href="#2" y="2.171"/><use xlink:href="#3" y="4.342"/><use xlink:href="#4" y="6.513"/></svg><svg x="321"><use xlink:href="#a"/><use xlink:href="#b" x="-.004" y="10.83"/><use xlink:href="#1"/><use xlink:href="#2" y="2.171"/><use xlink:href="#3" y="4.342"/><use xlink:href="#4" y="6.513"/><use xlink:href="#5" y="8.684"/></svg><svg x="428"><use xlink:href="#a"/><use xlink:href="#b" x="-.004" y="13.001"/><use xlink:href="#1"/><use xlink:href="#2" y="2.171"/><use xlink:href="#3" y="4.342"/><use xlink:href="#4" y="6.513"/><use xlink:href="#5" y="8.684"/><use xlink:href="#6" y="10.855"/></svg><svg x="535"><use xlink:href="#a"/><use xlink:href="#b" x="22.996" y="15.172"/><use xlink:href="#1"/><use xlink:href="#2" y="2.171"/><use xlink:href="#3" y="4.342"/><use xlink:href="#4" y="6.513"/><use xlink:href="#5" y="8.684"/><use xlink:href="#6" y="10.855"/><use xlink:href="#7" y="13.026"/><use xlink:href="#8" y="15.197"/></svg><svg x="642"><use xlink:href="#a"/><use xlink:href="#b" x="-.004" y="36.882"/><use xlink:href="#1"/><use xlink:href="#2" y="2.171"/><use xlink:href="#3" y="4.342"/><use xlink:href="#4" y="6.513"/><use xlink:href="#5" y="8.684"/><use xlink:href="#6" y="10.855"/><use xlink:href="#7" y="13.026"/><use xlink:href="#8" y="15.197"/><use xlink:href="#9" y="17.368"/><use xlink:href="#10" y="19.539"/><use xlink:href="#11" y="21.71"/><use xlink:href="#9" y="23.881"/><use xlink:href="#12" y="26.052"/><use xlink:href="#13" y="28.223"/><use xlink:href="#9" y="30.394"/><use xlink:href="#14" y="32.565"/><use xlink:href="#15" y="34.736"/></svg><svg x="749"><use xlink:href="#a"/><use xlink:href="#b" x="-.004" y="39.053"/><use xlink:href="#1"/><use xlink:href="#2" y="2.171"/><use xlink:href="#3" y="4.342"/><use xlink:href="#4" y="6.513"/><use xlink:href="#5" y="8.684"/><use xlink:href="#6" y="10.855"/><use xlink:href="#7" y="13.026"/><use xlink:href="#8" y="15.197"/><use xlink:href="#9" y="17.368"/><use xlink:href="#10" y="19.539"/><use xlink:href="#11" y="21.71"/><use xlink:href="#9" y="23.881"/><use xlink:href="#12" y="26.052"/><use xlink:href="#13" y="28.223"/><use xlink:href="#9" y="30.394"/><use xlink:href="#14" y="32.565"/><use xlink:href="#15" y="34.736"/><use xlink:href="#9" y="36.907"/></svg><svg x="856"><use xlink:href="#a"/><use xlink:href="#b" x="-.004" y="41.224"/><use xlink:href="#2"/><use xlink:href="#3" y="2.171"/><use xlink:href="#4" y="4.342"/><use xlink:href="#5" y="6.513"/><use xlink:href="#6" y="8.684"/><use xlink:href="#7" y="10.855"/><use xlink:href="#8" y="13.026"/><use xlink:href="#9" y="15.197"/><use xlink:href="#10" y="17.368"/><use xlink:href="#11" y="19.539"/><use xlink:href="#9" y="21.71"/><use xlink:href="#12" y="23.881"/><use xlink:href="#13" y="26.052"/><use xlink:href="#9" y="28.223"/><use xlink:href="#14" y="30.394"/><use xlink:href="#15" y="32.565"/><use xlink:href="#9" y="34.736"/><use xlink:href="#16" y="36.907"/><use xlink:href="#17" y="39.078"/></svg><svg x="963"><use xlink:href="#a"/><use xlink:href="#b" x="-.004" y="41.224"/><use xlink:href="#4"/><use xlink:href="#5" y="2.171"/><use xlink:href="#6" y="4.342"/><use xlink:href="#7" y="6.513"/><use xlink:href="#8" y="8.684"/><use xlink:href="#9" y="10.855"/><use xlink:href="#10" y="13.026"/><use xlink:href="#11" y="15.197"/><use xlink:href="#9" y="17.368"/><use xlink:href="#12" y="19.539"/><use xlink:href="#13" y="21.71"/><use xlink:href="#9" y="23.881"/><use xlink:href="#14" y="26.052"/><use xlink:href="#15" y="28.223"/><use xlink:href="#9" y="30.394"/><use xlink:href="#16" y="32.565"/><use xlink:href="#17" y="34.736"/><use xlink:href="#9" y="36.907"/><use xlink:href="#18" y="39.078"/></svg><svg x="1070"><use xlink:href="#a"/><use xlink:href="#b" x="-.004" y="41.224"/><use xlink:href="#5"/><use xlink:href="#6" y="2.171"/><use xlink:href="#7" y="4.342"/><use xlink:href="#8" y="6.513"/><use xlink:href="#9" y="8.684"/><use xlink:href="#10" y="10.855"/><use xlink:href="#11" y="13.026"/><use xlink:href="#9" y="15.197"/><use xlink:href="#12" y="17.368"/><use xlink:href="#13" y="19.539"/><use xlink:href="#9" y="21.71"/><use xlink:href="#14" y="23.881"/><use xlink:href="#15" y="26.052"/><use xlink:href="#9" y="28.223"/><use xlink:href="#16" y="30.394"/><use xlink:href="#17" y="32.565"/><use xlink:href="#9" y="34.736"/><use xlink:href="#18" y="36.907"/><use xlink:href="#19" y="39.078"/></svg><svg x="1177"><use xlink:href="#a"/><use xlink:href="#b" x="-.004" y="41.224"/><use xlink:href="#7"/><use xlink:href="#8" y="2.171"/><use xlink:href="#9" y="4.342"/><use xlink:href="#10" y="6.513"/><use xlink:href="#11" y="8.684"/><use xlink:href="#9" y="10.855"/><use xlink:href="#12" y="13.026"/><use xlink:href="#13" y="15.197"/><use xlink:href="#9" y="17.368"/><use xlink:href="#14" y="19.539"/><use xlink:href="#15" y="21.71"/><use xlink:href="#9" y="23.881"/><use xlink:href="#16" y="26.052"/><use xlink:href="#17" y="28.223"/><use xlink:href="#9" y="30.394"/><use xlink:href="#18" y="32.565"/><use xlink:href="#19" y="34.736"/><use xlink:href="#9" y="36.907"/><use xlink:href="#20" y="39.078"/></svg><svg x="1284"><use xlink:href="#a"/><use xlink:href="#b" x="-.004" y="41.224"/><use xlink:href="#8"/><use xlink:href="#9" y="2.171"/><use xlink:href="#10" y="4.342"/><use xlink:href="#11" y="6.513"/><use xlink:href="#9" y="8.684"/><use xlink:href="#12" y="10.855"/><use xlink:href="#13" y="13.026"/><use xlink:href="#9" y="15.197"/><use xlink:href="#14" y="17.368"/><use xlink:href="#15" y="19.539"/><use xlink:href="#9" y="21.71"/><use xlink:href="#16" y="23.881"/><use xlink:href="#17" y="26.052"/><use xlink:href="#9" y="28.223"/><use xlink:href="#18" y="30.394"/><use xlink:href="#19" y="32.565"/><use xlink:href="#9" y="34.736"/><use xlink:href="#20" y="36.907"/><use xlink:href="#21" y="39.078"/></svg><svg x="1391"><use xlink:href="#a"/><use xlink:href="#b" x="-.004" y="41.224"/><use xlink:href="#9"/><use xlink:href="#10" y="2.171"/><use xlink:href="#11" y="4.342"/><use xlink:href="#9" y="6.513"/><use xlink:href="#12" y="8.684"/><use xlink:href="#13" y="10.855"/><use xlink:href="#9" y="13.026"/><use xlink:href="#14" y="15.197"/><use xlink:href="#15" y="17.368"/><use xlink:href="#9" y="19.539"/><use xlink:href="#16" y="21.71"/><use xlink:href="#17" y="23.881"/><use xlink:href="#9" y="26.052"/><use xlink:href="#18" y="28.223"/><use xlink:href="#19" y="30.394"/><use xlink:href="#9" y="32.565"/><use xlink:href="#20" y="34.736"/><use xlink:href="#21" y="36.907"/><use xlink:href="#22" y="39.078"/></svg><svg x="1498"><use xlink:href="#a"/><use xlink:href="#b" x="-.004" y="41.224"/><use xlink:href="#10"/><use xlink:href="#11" y="2.171"/><use xlink:href="#9" y="4.342"/><use xlink:href="#12" y="6.513"/><use xlink:href="#13" y="8.684"/><use xlink:href="#9" y="10.855"/><use xlink:href="#14" y="13.026"/><use xlink:href="#15" y="15.197"/><use xlink:href="#9" y="17.368"/><use xlink:href="#16" y="19.539"/><use xlink:href="#17" y="21.71"/><use xlink:href="#9" y="23.881"/><use xlink:href="#18" y="26.052"/><use xlink:href="#19" y="28.223"/><use xlink:href="#9" y="30.394"/><use xlink:href="#20" y="32.565"/><use xlink:href="#21" y="34.736"/><use xlink:href="#22" y="36.907"/><use xlink:href="#23" y="39.078"/></svg><svg x="1605"><use xlink:href="#a"/><use xlink:href="#b" x="-.004" y="41.224"/><use xlink:href="#11"/><use xlink:href="#9" y="2.171"/><use xlink:href="#12" y="4.342"/><use xlink:href="#13" y="6.513"/><use xlink:href="#9" y="8.684"/><use xlink:href="#14" y="10.855"/><use xlink:href="#15" y="13.026"/><use xlink:href="#9" y="15.197"/><use xlink:href="#16" y="17.368"/><use xlink:href="#17" y="19.539"/><use xlink:href="#9" y="21.71"/><use xlink:href="#18" y="23.881"/><use xlink:href="#19" y="26.052"/><use xlink:href="#9" y="28.223"/><use xlink:href="#20" y="30.394"/><use xlink:href="#21" y="32.565"/><use xlink:href="#22" y="34.736"/><use xlink:href="#23" y="36.907"/><use xlink:href="#24" y="39.078"/></svg><svg x="1712"><use xlink:href="#a"/><use xlink:href="#b" x="-.004" y="41.224"/><use xlink:href="#12"/><use xlink:href="#13" y="2.171"/><use xlink:href="#9" y="4.342"/><use xlink:href="#14" y="6.513"/><use xlink:href="#15" y="8.684"/><use xlink:href="#9" y="10.855"/><use xlink:href="#16" y="13.026"/><use xlink:href="#17" y="15.197"/><use xlink:href="#9" y="17.368"/><use xlink:href="#18" y="19.539"/><use xlink:href="#19" y="21.71"/><use xlink:href="#9" y="23.881"/><use xlink:href="#20" y="26.052"/><use xlink:href="#21" y="28.223"/><use xlink:href="#22" y="30.394"/><use xlink:href="#23" y="32.565"/><use xlink:href="#24" y="34.736"/><use xlink:href="#25" y="36.907"/><use xlink:href="#26" y="39.078"/></svg><svg x="1819"><use xlink:href="#a"/><use xlink:href="#b" x="-.004" y="41.224"/><use xlink:href="#9"/><use xlink:href="#14" y="2.171"/><use xlink:href="#15" y="4.342"/><use xlink:href="#9" y="6.513"/><use xlink:href="#16" y="8.684"/><use xlink:href="#17" y="10.855"/><use xlink:href="#9" y="13.026"/><use xlink:href="#18" y="15.197"/><use xlink:href="#19" y="17.368"/><use xlink:href="#9" y="19.539"/><use xlink:href="#20" y="21.71"/><use xlink:href="#21" y="23.881"/><use xlink:href="#22" y="26.052"/><use xlink:href="#23" y="28.223"/><use xlink:href="#24" y="30.394"/><use xlink:href="#25" y="32.565"/><use xlink:href="#26" y="34.736"/><use xlink:href="#9" y="36.907"/><use xlink:href="#27" y="39.078"/></svg><svg x="1926"><use xlink:href="#a"/><use xlink:href="#b" x="-.004" y="41.224"/><use xlink:href="#14"/><use xlink:href="#15" y="2.171"/><use xlink:href="#9" y="4.342"/><use xlink:href="#16" y="6.513"/><use xlink:href="#17" y="8.684"/><use xlink:href="#9" y="10.855"/><use xlink:href="#18" y="13.026"/><use xlink:href="#19" y="15.197"/><use xlink:href="#9" y="17.368"/><use xlink:href="#20" y="19.539"/><use xlink:href="#21" y="21.71"/><use xlink:href="#22" y="23.881"/><use xlink:href="#23" y="26.052"/><use xlink:href="#24" y="28.223"/><use xlink:href="#25" y="30.394"/><use xlink:href="#26" y="32.565"/><use xlink:href="#9" y="34.736"/><use xlink:href="#27" y="36.907"/><use xlink:href="#28" y="39.078"/></svg><svg x="2033"><use xlink:href="#a"/><use xlink:href="#b" x="-.004" y="41.224"/><use xlink:href="#15"/><use xlink:href="#9" y="2.171"/><use xlink:href="#16" y="4.342"/><use xlink:href="#17" y="6.513"/><use xlink:href="#9" y="8.684"/><use xlink:href="#18" y="10.855"/><use xlink:href="#19" y="13.026"/><use xlink:href="#9" y="15.197"/><use xlink:href="#20" y="17.368"/><use xlink:href="#21" y="19.539"/><use xlink:href="#22" y="21.71"/><use xlink:href="#23" y="23.881"/><use xlink:href="#24" y="26.052"/><use xlink:href="#25" y="28.223"/><use xlink:href="#26" y="30.394"/><use xlink:href="#9" y="32.565"/><use xlink:href="#27" y="34.736"/><use xlink:href="#28" y="36.907"/><use xlink:href="#29" y="39.078"/></svg><svg x="2140"><use xlink:href="#a"/><use xlink:href="#b" x="-.004" y="41.224"/><use xlink:href="#16"/><use xlink:href="#17" y="2.171"/><use xlink:href="#9" y="4.342"/><use xlink:href="#18" y="6.513"/><use xlink:href="#19" y="8.684"/><use xlink:href="#9" y="10.855"/><use xlink:href="#20" y="13.026"/><use xlink:href="#21" y="15.197"/><use xlink:href="#22" y="17.368"/><use xlink:href="#23" y="19.539"/><use xlink:href="#24" y="21.71"/><use xlink:href="#25" y="23.881"/><use xlink:href="#26" y="26.052"/><use xlink:href="#9" y="28.223"/><use xlink:href="#27" y="30.394"/><use xlink:href="#28" y="32.565"/><use xlink:href="#29" y="34.736"/><use xlink:href="#30" y="39.078"/></svg><svg x="2247"><use xlink:href="#a"/><use xlink:href="#b" x="-.004" y="41.224"/><use xlink:href="#17"/><use xlink:href="#9" y="2.171"/><use xlink:href="#18" y="4.342"/><use xlink:href="#19" y="6.513"/><use xlink:href="#9" y="8.684"/><use xlink:href="#20" y="10.855"/><use xlink:href="#21" y="13.026"/><use xlink:href="#22" y="15.197"/><use xlink:href="#23" y="17.368"/><use xlink:href="#24" y="19.539"/><use xlink:href="#25" y="21.71"/><use xlink:href="#26" y="23.881"/><use xlink:href="#9" y="26.052"/><use xlink:href="#27" y="28.223"/><use xlink:href="#28" y="30.394"/><use xlink:href="#29" y="32.565"/><use xlink:href="#30" y="36.907"/><use xlink:href="#31" y="39.078"/></svg><svg x="2354"><use xlink:href="#a"/><use xlink:href="#b" x="-.004" y="41.224"/><use xlink:href="#9"/><use xlink:href="#18" y="2.171"/><use xlink:href="#19" y="4.342"/><use xlink:href="#9" y="6.513"/><use xlink:href="#20" y="8.684"/><use xlink:href="#21" y="10.855"/><use xlink:href="#22" y="13.026"/><use xlink:href="#23" y="15.197"/><use xlink:href="#24" y="17.368"/><use xlink:href="#25" y="19.539"/><use xlink:href="#26" y="21.71"/><use xlink:href="#9" y="23.881"/><use xlink:href="#27" y="26.052"/><use xlink:href="#28" y="28.223"/><use xlink:href="#29" y="30.394"/><use xlink:href="#30" y="34.736"/><use xlink:href="#31" y="36.907"/><use xlink:href="#32" y="39.078"/></svg><svg x="2461"><use xlink:href="#a"/><use xlink:href="#b" x="-.004" y="41.224"/><use xlink:href="#18"/><use xlink:href="#19" y="2.171"/><use xlink:href="#9" y="4.342"/><use xlink:href="#20" y="6.513"/><use xlink:href="#21" y="8.684"/><use xlink:href="#22" y="10.855"/><use xlink:href="#23" y="13.026"/><use xlink:href="#24" y="15.197"/><use xlink:href="#25" y="17.368"/><use xlink:href="#26" y="19.539"/><use xlink:href="#9" y="21.71"/><use xlink:href="#27" y="23.881"/><use xlink:href="#28" y="26.052"/><use xlink:href="#29" y="28.223"/><use xlink:href="#30" y="32.565"/><use xlink:href="#31" y="34.736"/><use xlink:href="#32" y="36.907"/><use xlink:href="#33" y="39.078"/></svg><svg x="2568"><use xlink:href="#a"/><use xlink:href="#b" x="-.004" y="41.224"/><use xlink:href="#19"/><use xlink:href="#9" y="2.171"/><use xlink:href="#20" y="4.342"/><use xlink:href="#21" y="6.513"/><use xlink:href="#22" y="8.684"/><use xlink:href="#23" y="10.855"/><use xlink:href="#24" y="13.026"/><use xlink:href="#25" y="15.197"/><use xlink:href="#26" y="17.368"/><use xlink:href="#9" y="19.539"/><use xlink:href="#27" y="21.71"/><use xlink:href="#28" y="23.881"/><use xlink:href="#29" y="26.052"/><use xlink:href="#30" y="30.394"/><use xlink:href="#31" y="32.565"/><use xlink:href="#32" y="34.736"/><use xlink:href="#33" y="36.907"/><use xlink:href="#34" y="39.078"/></svg><svg x="2675"><use xlink:href="#a"/><use xlink:href="#b" x="-.004" y="41.224"/><use xlink:href="#9"/><use xlink:href="#20" y="2.171"/><use xlink:href="#21" y="4.342"/><use xlink:href="#22" y="6.513"/><use xlink:href="#23" y="8.684"/><use xlink:href="#24" y="10.855"/><use xlink:href="#25" y="13.026"/><use xlink:href="#26" y="15.197"/><use xlink:href="#9" y="17.368"/><use xlink:href="#27" y="19.539"/><use xlink:href="#28" y="21.71"/><use xlink:href="#29" y="23.881"/><use xlink:href="#30" y="28.223"/><use xlink:href="#31" y="30.394"/><use xlink:href="#32" y="32.565"/><use xlink:href="#33" y="34.736"/><use xlink:href="#34" y="36.907"/><use xlink:href="#35" y="39.078"/></svg><svg x="2782"><use xlink:href="#a"/><use xlink:href="#b" x="-.004" y="41.224"/><use xlink:href="#20"/><use xlink:href="#21" y="2.171"/><use xlink:href="#22" y="4.342"/><use xlink:href="#23" y="6.513"/><use xlink:href="#24" y="8.684"/><use xlink:href="#25" y="10.855"/><use xlink:href="#26" y="13.026"/><use xlink:href="#9" y="15.197"/><use xlink:href="#27" y="17.368"/><use xlink:href="#28" y="19.539"/><use xlink:href="#29" y="21.71"/><use xlink:href="#30" y="26.052"/><use xlink:href="#31" y="28.223"/><use xlink:href="#32" y="30.394"/><use xlink:href="#33" y="32.565"/><use xlink:href="#34" y="34.736"/><use xlink:href="#35" y="36.907"/></svg><svg x="2889"><use xlink:href="#a"/><use xlink:href="#b" x="8.996" y="41.224"/><use xlink:href="#21"/><use xlink:href="#22" y="2.171"/><use xlink:href="#23" y="4.342"/><use xlink:href="#24" y="6.513"/><use xlink:href="#25" y="8.684"/><use xlink:href="#26" y="10.855"/><use xlink:href="#9" y="13.026"/><use xlink:href="#27" y="15.197"/><use xlink:href="#28" y="17.368"/><use xlink:href="#29" y="19.539"/><use xlink:href="#30" y="23.881"/><use xlink:href="#31" y="26.052"/><use xlink:href="#32" y="28.223"/><use xlink:href="#33" y="30.394"/><use xlink:href="#34" y="32.565"/><use xlink:href="#35" y="34.736"/><use xlink:href="#36" y="39.078"/><text y="42.919" class="g">Iniciando</text></svg><svg x="2996"><use xlink:href="#a"/><use xlink:href="#b" x="9.996" y="41.224"/><use xlink:href="#21"/><use xlink:href="#22" y="2.171"/><use xlink:href="#23" y="4.342"/><use xlink:href="#24" y="6.513"/><use xlink:href="#25" y="8.684"/><use xlink:href="#26" y="10.855"/><use xlink:href="#9" y="13.026"/><use xlink:href="#27" y="15.197"/><use xlink:href="#28" y="17.368"/><use xlink:href="#29" y="19.539"/><use xlink:href="#30" y="23.881"/><use xlink:href="#31" y="26.052"/><use xlink:href="#32" y="28.223"/><use xlink:href="#33" y="30.394"/><use xlink:href="#34" y="32.565"/><use xlink:href="#35" y="34.736"/><use xlink:href="#36" y="39.078"/><text y="42.919" class="g">Iniciando.</text></svg><svg x="3103"><use xlink:href="#a"/><use xlink:href="#b" x="10.996" y="41.224"/><use xlink:href="#21"/><use xlink:href="#22" y="2.171"/><use xlink:href="#23" y="4.342"/><use xlink:href="#24" y="6.513"/><use xlink:href="#25" y="8.684"/><use xlink:href="#26" y="10.855"/><use xlink:href="#9" y="13.026"/><use xlink:href="#27" y="15.197"/><use xlink:href="#28" y="17.368"/><use xlink:href="#29" y="19.539"/><use xlink:href="#30" y="23.881"/><use xlink:href="#31" y="26.052"/><use xlink:href="#32" y="28.223"/><use xlink:href="#33" y="30.394"/><use xlink:href="#34" y="32.565"/><use xlink:href="#35" y="34.736"/><use xlink:href="#36" y="39.078"/><text y="42.919" class="g">Iniciando..</text></svg><svg x="3210"><use xlink:href="#a"/><use xlink:href="#b" x="11.996" y="41.224"/><use xlink:href="#21"/><use xlink:href="#22" y="2.171"/><use xlink:href="#23" y="4.342"/><use xlink:href="#24" y="6.513"/><use xlink:href="#25" y="8.684"/><use xlink:href="#26" y="10.855"/><use xlink:href="#9" y="13.026"/><use xlink:href="#27" y="15.197"/><use xlink:href="#28" y="17.368"/><use xlink:href="#29" y="19.539"/><use xlink:href="#30" y="23.881"/><use xlink:href="#31" y="26.052"/><use xlink:href="#32" y="28.223"/><use xlink:href="#33" y="30.394"/><use xlink:href="#34" y="32.565"/><use xlink:href="#35" y="34.736"/><use xlink:href="#36" y="39.078"/><text y="42.919" class="g">Iniciando...</text></svg><svg x="3317"><use xlink:href="#a"/><use xlink:href="#b" x="12.996" y="41.224"/><use xlink:href="#21"/><use xlink:href="#22" y="2.171"/><use xlink:href="#23" y="4.342"/><use xlink:href="#24" y="6.513"/><use xlink:href="#25" y="8.684"/><use xlink:href="#26" y="10.855"/><use xlink:href="#9" y="13.026"/><use xlink:href="#27" y="15.197"/><use xlink:href="#28" y="17.368"/><use xlink:href="#29" y="19.539"/><use xlink:href="#30" y="23.881"/><use xlink:href="#31" y="26.052"/><use xlink:href="#32" y="28.223"/><use xlink:href="#33" y="30.394"/><use xlink:href="#34" y="32.565"/><use xlink:href="#35" y="34.736"/><use xlink:href="#36" y="39.078"/><text y="42.919" class="g">Iniciando....</text></svg><svg x="3424"><use xlink:href="#a"/><use xlink:href="#b" x="13.996" y="41.224"/><use xlink:href="#21"/><use xlink:href="#22" y="2.171"/><use xlink:href="#23" y="4.342"/><use xlink:href="#24" y="6.513"/><use xlink:href="#25" y="8.684"/><use xlink:href="#26" y="10.855"/><use xlink:href="#9" y="13.026"/><use xlink:href="#27" y="15.197"/><use xlink:href="#28" y="17.368"/><use xlink:href="#29" y="19.539"/><use xlink:href="#30" y="23.881"/><use xlink:href="#31" y="26.052"/><use xlink:href="#32" y="28.223"/><use xlink:href="#33" y="30.394"/><use xlink:href="#34" y="32.565"/><use xlink:href="#35" y="34.736"/><use xlink:href="#36" y="39.078"/><use xlink:href="#37" y="41.249"/></svg><svg x="3531"><use xlink:href="#a"/><use xlink:href="#b" x="-.004" y="41.224"/><use xlink:href="#23"/><use xlink:href="#24" y="2.171"/><use xlink:href="#25" y="4.342"/><use xlink:href="#26" y="6.513"/><use xlink:href="#9" y="8.684"/><use xlink:href="#27" y="10.855"/><use xlink:href="#28" y="13.026"/><use xlink:href="#29" y="15.197"/><use xlink:href="#30" y="19.539"/><use xlink:href="#31" y="21.71"/><use xlink:href="#32" y="23.881"/><use xlink:href="#33" y="26.052"/><use xlink:href="#34" y="28.223"/><use xlink:href="#35" y="30.394"/><use xlink:href="#36" y="34.736"/><use xlink:href="#37" y="36.907"/></svg><svg x="3638"><use xlink:href="#a"/><use xlink:href="#b" x="-.004" y="41.224"/><use xlink:href="#27"/><use xlink:href="#28" y="2.171"/><use xlink:href="#29" y="4.342"/><use xlink:href="#30" y="8.684"/><use xlink:href="#31" y="10.855"/><use xlink:href="#32" y="13.026"/><use xlink:href="#33" y="15.197"/><use xlink:href="#34" y="17.368"/><use xlink:href="#35" y="19.539"/><use xlink:href="#36" y="23.881"/><use xlink:href="#37" y="26.052"/><use xlink:href="#38" y="30.394"/><use xlink:href="#39" y="32.565"/><use xlink:href="#40" y="34.736"/><use xlink:href="#41" y="36.907"/><use xlink:href="#42" y="39.078"/></svg><svg x="3745"><use xlink:href="#a"/><use xlink:href="#b" x="-.004" y="41.224"/><use xlink:href="#29"/><use xlink:href="#30" y="4.342"/><use xlink:href="#31" y="6.513"/><use xlink:href="#32" y="8.684"/><use xlink:href="#33" y="10.855"/><use xlink:href="#34" y="13.026"/><use xlink:href="#35" y="15.197"/><use xlink:href="#36" y="19.539"/><use xlink:href="#37" y="21.71"/><use xlink:href="#38" y="26.052"/><use xlink:href="#39" y="28.223"/><use xlink:href="#40" y="30.394"/><use xlink:href="#41" y="32.565"/><use xlink:href="#42" y="34.736"/><use xlink:href="#43" y="36.907"/></svg><svg x="3852"><use xlink:href="#a"/><use xlink:href="#b" x="-.004" y="41.224"/><use xlink:href="#30"/><use xlink:href="#31" y="2.171"/><use xlink:href="#32" y="4.342"/><use xlink:href="#33" y="6.513"/><use xlink:href="#34" y="8.684"/><use xlink:href="#35" y="10.855"/><use xlink:href="#36" y="15.197"/><use xlink:href="#37" y="17.368"/><use xlink:href="#38" y="21.71"/><use xlink:href="#39" y="23.881"/><use xlink:href="#40" y="26.052"/><use xlink:href="#41" y="28.223"/><use xlink:href="#42" y="30.394"/><use xlink:href="#43" y="32.565"/><use xlink:href="#44" y="36.907"/><use xlink:href="#45" y="39.078"/></svg><svg x="3959"><use xlink:href="#a"/><use xlink:href="#b" x="-.004" y="41.224"/><use xlink:href="#32"/><use xlink:href="#33" y="2.171"/><use xlink:href="#34" y="4.342"/><use xlink:href="#35" y="6.513"/><use xlink:href="#36" y="10.855"/><use xlink:href="#37" y="13.026"/><use xlink:href="#38" y="17.368"/><use xlink:href="#39" y="19.539"/><use xlink:href="#40" y="21.71"/><use xlink:href="#41" y="23.881"/><use xlink:href="#42" y="26.052"/><use xlink:href="#43" y="28.223"/><use xlink:href="#44" y="32.565"/><use xlink:href="#45" y="34.736"/><use xlink:href="#46" y="36.907"/></svg><svg x="4066"><use xlink:href="#a"/><use xlink:href="#b" x="-.004" y="41.224"/><use xlink:href="#34"/><use xlink:href="#35" y="2.171"/><use xlink:href="#36" y="6.513"/><use xlink:href="#37" y="8.684"/><use xlink:href="#38" y="13.026"/><use xlink:href="#39" y="15.197"/><use xlink:href="#40" y="17.368"/><use xlink:href="#41" y="19.539"/><use xlink:href="#42" y="21.71"/><use xlink:href="#43" y="23.881"/><use xlink:href="#44" y="28.223"/><use xlink:href="#45" y="30.394"/><use xlink:href="#46" y="32.565"/><use xlink:href="#47" y="36.907"/><use xlink:href="#48" y="39.078"/></svg><svg x="4173"><use xlink:href="#a"/><use xlink:href="#b" x="-.004" y="41.224"/><use xlink:href="#36" y="2.171"/><use xlink:href="#37" y="4.342"/><use xlink:href="#38" y="8.684"/><use xlink:href="#39" y="10.855"/><use xlink:href="#40" y="13.026"/><use xlink:href="#41" y="15.197"/><use xlink:href="#42" y="17.368"/><use xlink:href="#43" y="19.539"/><use xlink:href="#44" y="23.881"/><use xlink:href="#45" y="26.052"/><use xlink:href="#46" y="28.223"/><use xlink:href="#47" y="32.565"/><use xlink:href="#48" y="34.736"/><use xlink:href="#43" y="36.907"/></svg><svg x="4280"><use xlink:href="#a"/><use xlink:href="#b" x="-.004" y="41.224"/><use xlink:href="#37"/><use xlink:href="#38" y="4.342"/><use xlink:href="#39" y="6.513"/><use xlink:href="#40" y="8.684"/><use xlink:href="#41" y="10.855"/><use xlink:href="#42" y="13.026"/><use xlink:href="#43" y="15.197"/><use xlink:href="#44" y="19.539"/><use xlink:href="#45" y="21.71"/><use xlink:href="#46" y="23.881"/><use xlink:href="#47" y="28.223"/><use xlink:href="#48" y="30.394"/><use xlink:href="#43" y="32.565"/><use xlink:href="#44" y="36.907"/><use xlink:href="#45" y="39.078"/></svg><svg x="4387"><use xlink:href="#a"/><use xlink:href="#b" x="-.004" y="41.224"/><use xlink:href="#38" y="2.171"/><use xlink:href="#39" y="4.342"/><use xlink:href="#40" y="6.513"/><use xlink:href="#41" y="8.684"/><use xlink:href="#42" y="10.855"/><use xlink:href="#43" y="13.026"/><use xlink:href="#44" y="17.368"/><use xlink:href="#45" y="19.539"/><use xlink:href="#46" y="21.71"/><use xlink:href="#47" y="26.052"/><use xlink:href="#48" y="28.223"/><use xlink:href="#43" y="30.394"/><use xlink:href="#44" y="34.736"/><use xlink:href="#45" y="36.907"/><use xlink:href="#49" y="39.078"/></svg><svg x="4494"><use xlink:href="#a"/><use xlink:href="#b" x="-.004" y="41.224"/><use xlink:href="#38"/><use xlink:href="#39" y="2.171"/><use xlink:href="#40" y="4.342"/><use xlink:href="#41" y="6.513"/><use xlink:href="#42" y="8.684"/><use xlink:href="#43" y="10.855"/><use xlink:href="#44" y="15.197"/><use xlink:href="#45" y="17.368"/><use xlink:href="#46" y="19.539"/><use xlink:href="#47" y="23.881"/><use xlink:href="#48" y="26.052"/><use xlink:href="#43" y="28.223"/><use xlink:href="#44" y="32.565"/><use xlink:href="#45" y="34.736"/><use xlink:href="#49" y="36.907"/></svg><svg x="4601"><use xlink:href="#a"/><use xlink:href="#b" x="-.004" y="41.224"/><use xlink:href="#39"/><use xlink:href="#40" y="2.171"/><use xlink:href="#41" y="4.342"/><use xlink:href="#42" y="6.513"/><use xlink:href="#43" y="8.684"/><use xlink:href="#44" y="13.026"/><use xlink:href="#45" y="15.197"/><use xlink:href="#46" y="17.368"/><use xlink:href="#47" y="21.71"/><use xlink:href="#48" y="23.881"/><use xlink:href="#43" y="26.052"/><use xlink:href="#44" y="30.394"/><use xlink:href="#45" y="32.565"/><use xlink:href="#49" y="34.736"/><use xlink:href="#50" y="39.078"/></svg><svg x="4708"><use xlink:href="#a"/><use xlink:href="#b" x="-.004" y="41.224"/><use xlink:href="#40"/><use xlink:href="#41" y="2.171"/><use xlink:href="#42" y="4.342"/><use xlink:href="#43" y="6.513"/><use xlink:href="#44" y="10.855"/><use xlink:href="#45" y="13.026"/><use xlink:href="#46" y="15.197"/><use xlink:href="#47" y="19.539"/><use xlink:href="#48" y="21.71"/><use xlink:href="#43" y="23.881"/><use xlink:href="#44" y="28.223"/><use xlink:href="#45" y="30.394"/><use xlink:href="#49" y="32.565"/><use xlink:href="#50" y="36.907"/><text y="40.748" class="g">#</text><text x="2.004" y="40.748" class="g">Byebye</text></svg></svg></g></g></svg></svg>